<?xml version="1.0" standalone="no"?>
<!DOCTYPE svg PUBLIC "-//W3C//DTD SVG 20010904//EN"
 "http://www.w3.org/TR/2001/REC-SVG-20010904/DTD/svg10.dtd">
<svg version="1.0" xmlns="http://www.w3.org/2000/svg"
 width="50px" height="50px" viewBox="0 0 500.000000 500.000000"
 preserveAspectRatio="xMidYMid meet">

<g transform="translate(0.000000,500.000000) scale(0.100000,-0.100000)"
fill="#5a4f46" stroke="none">
<path d="M2660 4325 c-19 -91 -37 -171 -41 -176 -5 -8 -99 -3 -319 16 -296 25
-313 26 -331 9 -14 -12 -19 -31 -19 -64 0 -26 -3 -62 -6 -79 -6 -27 -11 -31
-38 -31 -18 0 -37 -5 -44 -12 -17 -17 -17 -249 0 -266 14 -14 1224 -17 1246
-4 9 7 12 42 10 143 l-3 134 -36 3 c-36 3 -37 4 -32 40 8 58 -8 65 -174 79
-80 6 -147 13 -148 15 -2 2 13 78 32 171 20 92 34 169 32 171 -2 2 -24 7 -49
11 l-45 7 -35 -167z"/>
<path d="M2170 3568 c-124 -11 -226 -21 -227 -22 -3 -3 86 -1068 89 -1071 10
-7 563 48 612 60 110 28 202 79 275 152 93 94 120 153 136 298 10 94 10 128
-1 185 -49 259 -269 423 -563 419 -53 -1 -197 -10 -321 -21z m473 -216 c74
-37 109 -72 146 -152 23 -48 26 -68 26 -155 0 -89 -3 -106 -27 -150 -14 -28
-46 -69 -70 -92 -65 -60 -137 -83 -308 -98 -80 -7 -147 -11 -150 -9 -5 6 -61
666 -57 671 8 7 203 21 283 19 80 -2 99 -6 157 -34z"/>
<path d="M2433 2321 c-211 -15 -386 -30 -389 -34 -4 -4 -5 -9 -2 -12 5 -5 670
36 826 51 34 3 62 10 62 15 0 13 -62 10 -497 -20z"/>
<path d="M2664 1961 c-74 -34 -108 -105 -85 -181 17 -57 43 -83 123 -125 89
-46 118 -71 118 -102 0 -62 -82 -81 -190 -43 -30 10 -59 15 -63 11 -5 -5 -7
-28 -5 -52 3 -41 5 -44 43 -55 22 -7 76 -13 119 -13 140 -2 206 51 206 163 0
50 -4 60 -34 93 -19 21 -68 56 -111 77 -89 45 -114 74 -97 112 21 46 75 51
188 18 17 -4 24 0 32 23 5 15 13 35 16 44 6 13 -5 19 -52 33 -77 21 -157 20
-208 -3z"/>
<path d="M1390 1684 l0 -287 128 6 c154 7 209 24 267 82 58 58 79 123 73 229
-5 95 -28 148 -85 195 -59 49 -110 61 -255 61 l-128 0 0 -286z m270 178 c51
-27 80 -89 80 -171 0 -127 -59 -191 -175 -191 l-55 0 0 190 0 190 58 0 c36 0
70 -7 92 -18z"/>
<path d="M1990 1755 c0 -247 6 -273 81 -322 36 -24 53 -28 133 -31 80 -3 96
-1 135 20 25 13 59 40 75 61 l31 39 3 224 3 224 -55 0 -56 0 0 -182 c0 -262
-13 -293 -121 -293 -51 0 -62 4 -86 28 l-28 27 -3 210 -3 210 -55 0 -54 0 0
-215z"/>
<path d="M3050 1685 l0 -285 55 0 55 0 0 104 c0 99 1 104 25 120 13 9 28 16
32 16 4 0 41 -54 81 -120 l74 -120 65 0 c49 0 62 3 57 13 -4 6 -50 79 -101
160 l-93 148 96 122 95 122 -61 3 c-45 2 -65 -1 -74 -12 -6 -8 -51 -66 -101
-130 l-90 -115 -3 130 -3 129 -54 0 -55 0 0 -285z"/>
<path d="M1340 1100 c0 -127 2 -150 15 -150 12 0 15 14 15 66 l0 65 37 -3 c34
-3 40 -8 73 -65 22 -39 42 -63 52 -63 15 0 10 12 -22 66 l-41 65 31 29 c29 27
37 59 24 95 -11 27 -60 45 -124 45 l-60 0 0 -150z m112 120 c40 -12 54 -35 44
-76 -7 -28 -41 -44 -92 -44 l-34 0 0 58 c0 32 3 62 7 65 9 10 32 9 75 -3z"/>
<path d="M1678 1234 c-40 -21 -61 -69 -61 -136 1 -92 51 -148 133 -148 82 0
132 56 133 148 1 100 -46 152 -135 152 -24 -1 -55 -7 -70 -16z m116 -14 c40
-15 59 -54 59 -121 -1 -71 -19 -103 -68 -119 -80 -26 -138 26 -138 127 0 96
63 145 147 113z"/>
<path d="M2051 1228 c-5 -13 -31 -81 -59 -151 -37 -95 -46 -127 -35 -125 9 2
23 23 33 48 l18 45 64 3 64 3 18 -51 c11 -30 24 -50 33 -50 10 0 13 6 9 18
-66 174 -113 282 -123 282 -8 0 -17 -10 -22 -22z m48 -80 c12 -34 21 -66 21
-70 0 -9 -84 -11 -93 -2 -3 3 2 27 12 53 10 25 21 54 24 64 4 9 8 17 11 17 2
0 14 -28 25 -62z"/>
<path d="M2282 1227 c-44 -47 -24 -99 52 -132 61 -27 79 -45 74 -77 -5 -35
-51 -53 -105 -41 -33 8 -43 7 -43 -2 0 -45 156 -26 174 20 20 53 -2 84 -87
125 -45 21 -52 29 -55 57 -4 42 24 57 89 49 28 -4 49 -3 49 3 0 14 -27 21 -79
21 -37 0 -52 -5 -69 -23z"/>
<path d="M2492 1238 c3 -7 25 -14 51 -16 l47 -3 0 -135 c0 -112 2 -134 15
-134 13 0 15 22 15 135 l0 135 45 0 c33 0 45 4 45 15 0 12 -19 15 -111 15 -84
0 -110 -3 -107 -12z"/>
<path d="M2790 1100 l0 -150 80 0 c64 0 80 3 80 15 0 12 -14 15 -65 15 l-65 0
0 60 0 60 60 0 c33 0 60 4 60 10 0 6 -27 10 -60 10 l-60 0 0 50 0 50 65 0 c51
0 65 3 65 15 0 12 -16 15 -80 15 l-80 0 0 -150z"/>
<path d="M3050 1101 c0 -128 2 -151 15 -151 12 0 15 14 15 65 l0 65 33 0 c30
0 36 -6 71 -65 21 -36 44 -65 52 -65 19 0 19 0 -22 69 l-37 61 27 25 c19 18
26 34 26 63 0 57 -25 76 -111 80 l-69 4 0 -151z m136 108 c8 -6 14 -26 14 -45
0 -41 -29 -64 -82 -64 l-38 0 0 66 0 67 46 -7 c26 -3 53 -11 60 -17z"/>
<path d="M3342 1230 c-46 -43 -23 -102 52 -135 64 -28 80 -47 72 -80 -11 -42
-74 -54 -142 -28 -8 3 -14 -1 -14 -10 0 -17 29 -27 82 -27 52 0 84 17 99 53
18 43 -3 75 -76 112 -52 26 -60 34 -63 62 -4 41 24 58 84 49 43 -5 68 6 38 18
-37 14 -110 6 -132 -14z"/>
</g>
</svg>
